<svg xmlns="http://www.w3.org/2000/svg" width="436.122" height="430.256" viewBox="0 0 436.122 430.256">
  <g id="MY_CLASSROOMS" data-name="MY CLASSROOMS" transform="translate(-54.224 -24.754)">
    <g id="Trazado_30" data-name="Trazado 30" transform="translate(54.224 118.067)" fill="#ebd049">
      <path d="M 17.70360374450684 330.8809204101563 C 11.25766277313232 330.1224670410156 6.000032901763916 322.566162109375 6.000032901763916 313.7060852050781 L 6.000032901763916 38.34220886230469 C 6.000032901763916 28.99851989746094 11.8477201461792 21.10477066040039 18.76947021484375 21.10477066040039 L 19.57040786743164 21.10477066040039 L 20.34328269958496 20.89470672607422 L 418.4144897460938 -87.31048583984375 C 422.8845520019531 -87.27783203125 424.5801086425781 -86.67398834228516 424.5801086425781 -75.50766754150391 L 430.1134643554688 131.4615783691406 L 430.1166687011719 133.5901489257813 C 430.1624755859375 146.7120208740234 429.6401062011719 156.2917022705078 422.4607849121094 160.0625152587891 L 17.70360374450684 330.8809204101563 Z" stroke="none"/>
      <path d="M 418.2898864746094 -81.05899047851563 L 21.91708374023438 26.68450927734375 L 20.37127685546875 27.10472106933594 L 18.7694091796875 27.10472106933594 C 15.57394409179688 27.10472106933594 12.00003051757813 31.9105224609375 12.00003051757813 38.34217834472656 L 12.00003051757813 313.7060546875 C 12.00003051757813 319.0962524414063 14.51034545898438 323.3445434570313 17.20425415039063 324.5790405273438 L 419.9775695800781 154.5749816894531 C 423.8735656738281 152.1520385742188 424.1541137695313 144.3270874023438 424.1167602539063 133.6109924316406 L 424.1156311035156 131.6220397949219 L 418.580078125 -75.50762939453125 C 418.580078125 -78.22210693359375 418.4419555664063 -79.96401977539063 418.2898864746094 -81.05899047851563 M 417.620361328125 -93.31240844726563 C 427.9864196777344 -93.31240844726563 430.580078125 -88.34133911132813 430.580078125 -75.50762939453125 L 436.1113586425781 131.3011779785156 C 436.1113586425781 144.1348571777344 436.8865356445313 159.2628479003906 425.2507629394531 165.3743896484375 L 18.7694091796875 336.9435119628906 C 8.403350830078125 336.9435119628906 3.0517578125e-05 326.539794921875 3.0517578125e-05 313.7060546875 L 3.0517578125e-05 38.34217834472656 C 3.0517578125e-05 25.50851440429688 8.403350830078125 15.10472106933594 18.7694091796875 15.10472106933594 L 417.620361328125 -93.31240844726563 Z" stroke="none" fill="#141414"/>
    </g>
    <g id="Trazado_31" data-name="Trazado 31" transform="translate(81.336 150.32)" fill="#588ef9">
      <path d="M 16.32047653198242 255.0150756835938 C 10.54263877868652 254.3378295898438 5.999993801116943 248.0217742919922 5.999993801116943 240.3557586669922 L 5.999993801116943 23.83717727661133 C 5.999993801116943 15.72080898284912 11.09188842773438 9.117703437805176 17.35067749023438 9.117703437805176 L 18.11709976196289 9.117703437805176 L 18.85888862609863 8.925071716308594 L 363.8147277832031 -80.66132354736328 C 366.8900756835938 -80.60357666015625 368.7184143066406 -79.81178283691406 368.7184143066406 -68.95582580566406 L 374.7507934570313 101.9280700683594 C 374.7470397949219 108.5545425415039 369.4402465820313 110.8756484985352 368.8351440429688 111.117805480957 L 16.32047653198242 255.0150756835938 Z" stroke="none"/>
      <path d="M 362.4735717773438 -74.11398315429688 L 20.36709594726563 14.732421875 L 18.88351440429688 15.11770629882813 L 17.3507080078125 15.11770629882813 C 14.82492065429688 15.11770629882813 12 18.84664916992188 12 23.83717346191406 L 12 240.355712890625 C 12 244.4105224609375 13.8651123046875 247.6325836181641 15.919189453125 248.6982727050781 L 366.4786376953125 105.6006546020508 C 368.7470397949219 104.553825378418 368.7470397949219 102.4180603027344 368.7545166015625 102.1398239135742 L 362.7184143066406 -68.95582580566406 C 362.7184143066406 -71.35908508300781 362.6076049804688 -73.00369262695313 362.4735717773438 -74.11398315429688 M 363.0658264160156 -86.6658935546875 C 372.6482849121094 -86.6658935546875 374.7184143066406 -80.39888000488281 374.7184143066406 -68.95582580566406 L 380.7470397949219 101.7162399291992 C 380.7470397949219 113.1593017578125 370.97216796875 116.7240600585938 370.97216796875 116.7240600585938 L 17.3507080078125 261.0751953125 C 7.768157958984375 261.0751953125 0 251.7987670898438 0 240.355712890625 L 0 23.83717346191406 C 0 12.39411926269531 7.768157958984375 3.117706298828125 17.3507080078125 3.117706298828125 L 363.0658264160156 -86.6658935546875 Z" stroke="none"/>
    </g>
    <g id="Trazado_34" data-name="Trazado 34" transform="translate(123 194)" fill="none">
      <path d="M0,0,83-22.994v83L0,83Z" stroke="none"/>
      <path d="M 73 -9.846794128417969 L 10 7.606304168701172 L 10 69.85348510742188 L 73 52.40274047851563 L 73 -9.846794128417969 M 83 -22.99376678466797 L 83 60.00932693481445 L 0 82.99999237060547 L 0 -7.62939453125e-06 L 83 -22.99376678466797 Z" stroke="none" fill="#fff"/>
    </g>
    <g id="Trazado_33" data-name="Trazado 33" transform="translate(233 197)" fill="none">
      <path d="M47.945-16.649c24.577,0,39.06,11.694,39.06,36.27s-4.021,66.961-28.6,66.961S11.675,69.308,11.675,44.732,23.368-16.649,47.945-16.649Z" stroke="none"/>
      <path d="M 47.94488143920898 -6.648651123046875 C 31.668701171875 -6.648651123046875 21.67460632324219 23.27705383300781 21.67460632324219 44.73180389404297 C 21.67460632324219 64.66855621337891 40.35124588012695 76.58212280273438 58.40747451782227 76.58212280273438 C 71.25460815429688 76.58212280273438 77.00518035888672 47.97389221191406 77.00518035888672 19.62162399291992 C 77.00518035888672 7.390644073486328 73.70211029052734 -6.648651123046875 47.94488143920898 -6.648651123046875 M 47.94488143920898 -16.64865112304688 C 72.52154541015625 -16.64865112304688 87.00518035888672 -4.955062866210938 87.00518035888672 19.62162399291992 C 87.00518035888672 44.19828033447266 82.984130859375 86.58212280273438 58.40747451782227 86.58212280273438 C 33.83078765869141 86.58212280273438 11.67460632324219 69.30846405029297 11.67460632324219 44.73180389404297 C 11.67460632324219 20.15512084960938 23.36822509765625 -16.64865112304688 47.94488143920898 -16.64865112304688 Z" stroke="none" fill="#fff"/>
    </g>
    <g id="Trazado_32" data-name="Trazado 32" transform="translate(348 120)" fill="none">
      <path d="M33,0,66,57,10.56,79.234Z" stroke="none"/>
      <path d="M 36.18352508544922 25.45745468139648 L 25.72763442993164 62.37684631347656 L 51.56002807617188 52.01686859130859 L 36.18352508544922 25.45745468139648 M 32.99999618530273 0 L 66 57.00000381469727 L 10.56027984619141 79.23388671875 L 32.99999618530273 0 Z" stroke="none" fill="#fff"/>
    </g>
  </g>
</svg>
