<svg xmlns="http://www.w3.org/2000/svg" width="263.57" height="402.787" viewBox="0 0 263.57 402.787">
  <g id="LESSON_PLANS" data-name="LESSON PLANS" transform="translate(-95.504 -104.089)">
    <g id="Trazado_16" data-name="Trazado 16" transform="translate(100 124.172)" fill="#f8d23d">
      <path d="M 210.6068420410156 335.8284606933594 L 4.927884101867676 335.8284606933594 L 0.5619255900382996 35.34787750244141 L 209.3235626220703 -15.0681619644165 C 210.0666198730469 -15.0263614654541 210.4695892333984 -14.90248870849609 210.6578826904297 -14.82289505004883 C 210.8345336914063 -14.74819469451904 210.8712310791016 -14.69649505615234 210.9101257324219 -14.64169502258301 C 211.0622711181641 -14.42738246917725 211.5582885742188 -13.49393558502197 211.5596313476563 -10.47317028045654 L 210.6068420410156 335.8284606933594 Z" stroke="none"/>
      <path d="M 206.5563201904297 -9.256195068359375 L 5.61944580078125 39.27020263671875 L 9.85577392578125 330.8283996582031 L 205.6206207275391 330.8283996582031 L 206.5563201904297 -9.256195068359375 M 208.7876281738281 -20.08255004882813 C 214.9569702148438 -20.08255004882813 216.5596313476563 -16.49954223632813 216.5596313476563 -10.46087646484375 L 215.5931243896484 340.8283996582031 L 1.52587890625e-05 340.8283996582031 L -4.495590209960938 31.42550659179688 L 208.7876281738281 -20.08255004882813 Z" stroke="none" fill="#1d1d1d"/>
    </g>
    <g id="Trazado_17" data-name="Trazado 17" transform="translate(111 144.431)" fill="#fff">
      <path d="M 238.8658294677734 306.5690002441406 L 1.99998676776886 306.5690002441406 L 1.99998676776886 13.37815380096436 L 246.0245819091797 -8.043580055236816 L 238.8658294677734 306.5690002441406 Z" stroke="none"/>
      <path d="M 243.9743194580078 -5.85589599609375 L 3.999984741210938 15.21029663085938 L 3.999984741210938 304.5690002441406 L 236.9108428955078 304.5690002441406 L 243.9743194580078 -5.85589599609375 M 248.0749053955078 -10.23126220703125 L 240.8208618164063 308.5690002441406 L -1.52587890625e-05 308.5690002441406 L -1.52587890625e-05 11.54605102539063 L 248.0749053955078 -10.23126220703125 Z" stroke="none" fill="#191919"/>
    </g>
    <g id="Trazado_18" data-name="Trazado 18" transform="translate(105 158)" fill="#fff">
      <path d="M 231.0417175292969 303.0000305175781 L 2.06266450881958 303.0000305175781 L 11.19333934783936 7.119054794311523 L 237.5219879150391 -4.464675426483154 L 231.0417175292969 303.0000305175781 Z" stroke="none"/>
      <path d="M 235.4770965576172 -2.357391357421875 L 13.13551330566406 9.0223388671875 L 4.125320434570313 300.9999694824219 L 229.0834045410156 300.9999694824219 L 235.4770965576172 -2.357391357421875 M 239.5668334960938 -6.571990966796875 L 233 304.9999694824219 L 0 304.9999694824219 L 9.251083374023438 5.21588134765625 L 239.5668334960938 -6.571990966796875 Z" stroke="none" fill="#191919"/>
    </g>
    <g id="Trazado_19" data-name="Trazado 19" transform="translate(96 169)" fill="#fff">
      <path d="M 231.0000152587891 302.8838195800781 L 5.772895812988281 290.1614990234375 L 10.38689994812012 -4.299898147583008 L 231.0000152587891 5.199185371398926 L 231.0000152587891 302.8838195800781 Z" stroke="none"/>
      <path d="M 12.35444641113281 -2.213348388671875 L 7.802688598632813 288.2730102539063 L 228.9999847412109 300.7677001953125 L 228.9999847412109 7.114898681640625 L 12.35444641113281 -2.213348388671875 M 8.419357299804688 -6.386474609375 L 232.9999847412109 3.283416748046875 L 232.9999847412109 305 L 3.743026733398438 292.050048828125 L 8.419357299804688 -6.386474609375 Z" stroke="none" fill="#191919"/>
    </g>
    <g id="Trazado_15" data-name="Trazado 15" transform="translate(96 158)" fill="#f8d23d">
      <path d="M 213.1220855712891 343.8122863769531 L 5 304.8492126464844 L 5 6.060200691223145 L 212.0501556396484 46.12314224243164 L 212.5207061767578 46.21419143676758 L 212.8737335205078 46.21419143676758 C 213.0422210693359 46.29728317260742 213.4567260742188 46.58022689819336 214.0133972167969 47.23353958129883 C 214.7059478759766 48.04639053344727 215.3996429443359 49.16514205932617 216.0196075439453 50.46884155273438 C 217.3802490234375 53.33024215698242 218 56.23194122314453 218 57.71714019775391 L 218 160.2711334228516 L 218 333.5521545410156 C 218 335.02099609375 217.3650054931641 337.7817993164063 215.9708557128906 340.3722839355469 C 215.3531951904297 341.5198974609375 214.6692047119141 342.4774780273438 213.9927520751953 343.1415405273438 C 213.5865631103516 343.540283203125 213.2907257080078 343.7272338867188 213.1220855712891 343.8122863769531 Z" stroke="none"/>
      <path d="M 10 12.12039184570313 L 10 300.6983947753906 L 211.3571319580078 338.39501953125 C 212.1973876953125 336.9338684082031 213 334.7124633789063 213 333.5521545410156 L 213 160.2711334228516 L 213 57.71710205078125 C 213 56.08346557617188 211.6862030029297 52.54989624023438 210.5699157714844 50.92941284179688 L 10 12.12039184570313 M 0 -3.0517578125e-05 L 213 41.21414184570313 C 218.5228424072266 41.21414184570313 223 52.19424438476563 223 57.71710205078125 L 223 160.2711334228516 L 223 333.5521545410156 C 223 339.0749816894531 218.5228424072266 348.8763122558594 213 348.8763122558594 L 0 309 L 0 -3.0517578125e-05 Z" stroke="none" fill="#1d1d1d"/>
    </g>
    <g id="Trazado_20" data-name="Trazado 20" transform="translate(134 277)" fill="#fff">
      <path d="M 120 61.6776008605957 L 5 31.28091239929199 L 5 -15.60063171386719 L 120 12.43809795379639 L 120 61.6776008605957 Z" stroke="none"/>
      <path d="M 10 -9.235076904296875 L 10 27.4307918548584 L 115 55.18428039550781 L 115 16.3654899597168 L 10 -9.235076904296875 M 0 -21.96616363525391 L 125 8.510704040527344 L 125 68.17089080810547 L 0 35.13101959228516 L 0 -21.96616363525391 Z" stroke="none" fill="#1d1d1d"/>
    </g>
    <line id="Línea_1" data-name="Línea 1" x2="85" y2="23" transform="translate(150.5 283.5)" fill="none" stroke="#171717" stroke-width="5"/>
    <line id="Línea_2" data-name="Línea 2" x2="85" y2="24" transform="translate(150.5 294.5)" fill="none" stroke="#171717" stroke-width="5"/>
  </g>
</svg>
